<svg version="1.1" id="레이어_1" xmlns="http://www.w3.org/2000/svg" x="0" y="0" viewBox="0 0 504.3 273.9" style="enable-background:new 0 0 504.3 273.9" xml:space="preserve">
  <style>
    .st5{fill:#607e8f}.st6{fill:#44b6d2}
  </style>
  <path d="M295.6 226.4c-9.3-.3-18.6-.6-27.9.2-2 5.8-1.4 7.1 4.3 6.7 4.6-.3 6 1.1 5.8 5.7-.4 8.6-.1 17.3-.1 26 0 5.8 1.6 6.7 7.7 4.3.2-12 .3-23.9.5-35.9h6c5.3-.1 6-1.3 3.7-7zm-10.6 8.5c.1-.5.3-1 .8-1.5-.3.5-.6 1-.8 1.5z" style="fill:#607d8e"/>
  <path d="M82.6 173.7v-161c0-1.8.6-3.7-1-5.2-.5-1.4-1.4-2.1-3-1.9H53.7c-1.3.1-2.3.7-2.8 1.9-1.6 1.7-1.1 3.7-1.1 5.7v159.9c0 1.8-.6 3.7.9 5.2.9 2.5 2.9 2.9 5.2 2.9h20.9c2.2 0 4.4-.2 5.2-2.8 1.1-1.3.6-3.1.6-4.7z" style="fill:#3ab5d1"/>
  <path d="M71.7 226.5c1 0 1.7.2 2.4.4-.8.1-1.6 0-2.4-.4-2.4 5.8-.3 11.8-1.1 17.7-6.9 0-13.9 0-20.8.1-.1-3.9-.1-7.9-.1-11.8 0-6.6 0-6.6-7-6-1.9 1.1-1 3-1 4.5-.1 11.2-.1 22.4 0 33.7 0 6.3 1.5 7.2 7.7 4.7.2-5.9.4-11.9.6-17.8 5.6 0 11.2.2 16.8 0 2.9-.1 4.2.7 4 3.8-.3 3.1-.1 6.3-.1 9.4 0 6.2 1.6 7.2 7.7 4.7l.3-36.9c0-6.9 0-6.9-7-6.1z" style="fill:#648191"/>
  <path d="M116.9 263.2c-6.3-1.8-12.8-.1-19.2-.9.1-3.6.1-7.3.2-10.9h11.8c5.4 0 6-1.2 3.8-6.9l-15.8-.3c0-3.6 0-7.2.1-10.8 2.8 0 5.6.2 8.3-.1 3.8-.3 7.7 1.2 11.2-1 0-.5.1-1 0-1.4.3-2.2 1.4-4.8-2.9-4.8-8 0-15.9.2-23.9.3-.3.4-.9.7-.9 1.1-.1 13.3-.1 26.6-.1 39.9 0 2.6 1.6 2.9 3.7 2.9 4.5 0 9 .2 13.5-.1 3.5-.2 7.2 1.3 10.5-1 .5-2 1.1-4.1-.3-6zm-17 .7v-.3l1.5.3h-1.5z" style="fill:#5e7d8f"/>
  <path d="M408.5 226.6c-7.7-1.2-15.4-.3-23.1-.5-6.1-.1-6.1 0-5.7 6.1 3.3 2.4 7.1.4 10.5 1.1.2 11.9.3 23.9.5 35.8 6 2.4 7.6 1.5 7.7-4.3v-23.4c0-7.8 0-7.8 7.5-8.2 1-.1 2 .1 2.6-.9 1.2-1.8 1.4-3.8 0-5.7z" style="fill:#6a8595"/>
  <path class="st5" d="M262.6 240.7c-4.1-12.4-16.1-18.1-28.6-14.3-13.7 4.2-19.4 21.5-11.8 34 3.6 6 9.5 8.4 15.4 10.9h7c.6-1.4 2-.8 3.1-1.2 12.4-3.7 19.1-16.8 14.9-29.4zM249 260.8c-1.4.9-2.9 1.5-4.4 2.2-1.9.1-3.8.1-5.7.2-6.1-1.9-10-6-12.1-12v-6.6c2.4-5.5 5.6-10.2 12.1-11.2 7.3-1.1 13.7 2.8 16.1 9.6 2.4 6.7 0 14-6 17.8z"/>
  <path class="st5" d="M458.3 247.4c-.6-11.4-9.3-21.1-19.9-22.1-12-1.1-22.1 5.9-24.7 17-2.7 11.7 2.9 22.6 13.9 27.2 1.3.5 3 .3 3.9 1.8h7c.6-1.1 1.7-.8 2.6-1 10.2-2.5 17.7-12.6 17.2-22.9zm-20 15.8h-5.4c-6.5-2.1-10.4-6.6-12.1-13.1v-3.4c3.3-10 7.7-13.8 15.9-13.4 7.8.4 11.5 5.7 13.8 12.3 0 1.5.1 3.1.1 4.6-1.9 6.5-5.9 10.8-12.3 13z"/>
  <path class="st6" d="M234.6 129.5c-.3-11.3-5.5-20.4-12.9-28.4-10.1-10.9-23.1-17.1-36.6-22.7-9.4-3.9-18.9-7.6-26.2-15-6.1-6.1-7.8-14-4.7-20.4 4.5-9.5 15.3-13.8 27.3-11 9.5 2.3 18 6.7 26.2 11.8 5 3.1 7.5 2.8 10.9-1.9 3.2-4.4 6.2-9 9-13.7 2.2-3.6 1.7-6.9-2.1-9.5-8.2-5.5-17.1-9.2-26.6-12.4-17-5.6-33.5-4.8-49.7 1.4-31.3 11.9-39.6 52.1-16.2 76.6 10.1 10.6 23.1 16.6 36.3 22.2 8.6 3.6 17.1 7.5 23.5 14.6 9 10 7.8 22.8-2.9 30.2-3 2.1-6.6 2.1-9.6 3.9-3.3-.1-6.5-.1-9.8-.2-11.7-3.1-22.2-8.4-32.1-15.2-3.8-2.6-6.8-1.9-9.2 2-2.4 3.8-4.5 7.7-6.8 11.6-4.4 7.5-4.4 8.8 2.8 13.9 22.7 16 47.5 21.5 74.5 12.9 19.7-6.3 34-23.9 34.8-41.8.1-3 .1-6 .1-8.9z"/>
  <path d="M381.2 9.1c0-.7-.2-2.1-1.7-1.8-.9-.3-.7-1.9-2-1.7-34.2 0-68.5 0-102.7-.1-1.2 0-2.3 0-3.2 1.1-1.1.3-1.5 1.1-1.7 2.1-.1 2-.3 4-.3 6v123.8c0 13 .1 26 .2 38.9.6 2.9 2.6 4 5.3 4h21.7c2.5 0 4.5-1 4.8-3.8 1.3-1.6.7-3.5.7-5.3 0-18.3.2-36.6-.1-54.9 0-4 1.2-5 5.1-4.9 18.3.2 36.6.1 54.9.1 5.1 0 6.9-1.7 7.1-6.8.1-5.3.2-10.6 0-16-.2-5.8-1.9-7.2-7.6-7.2-18.1 0-36.3-.1-54.4.1-4 0-5-1.2-5-5 .2-12.5.2-25 0-37.4-.1-3.7 1-4.8 4.7-4.8 22.1.2 44.3.1 66.4 0 1.7 0 3.7.7 5.2-.8 1.1-.3 1.7-1 2-2 2-7.9.9-15.7.6-23.6z" style="fill:#3cb5d2"/>
  <path class="st6" d="M459.3 13.2c0-1.6.6-3.3-.8-4.7-.2-1.9-1.5-2.5-3.1-2.8h-25.8c-3.8 1-3.2 4.1-3.2 6.9V125c0 6-.6 11.9-3 17.6-3.5 8.3-12.7 13.4-21 11.7-5.1-1-9.2-3.7-12.7-7.4-2.7-2.9-5.5-3-8.2-.3-4.1 4.1-8.2 8.3-12.2 12.5-2.5 2.6-2.4 5.1 0 7.9 11.3 13.1 25.8 19 42.6 17.1 31.6-3.5 46.9-26 47.3-52.9.6-39.4.2-78.7.1-118z"/>
  <path d="M492.2 255.5c-1.2-2-1.4-3.2 1-4.6 3.3-1.8 5.5-4.8 6.4-8.5 0-2-.1-4-.1-6.1-2-5.7-5.5-9.8-12-10-6.7-.4-13.3-.5-20 0-1.9 1.1-1 3-1 4.5-.1 11.4-.1 22.8 0 34.2 0 5.8 1.7 6.6 7.7 4.2l.3-15.9c5.2-1.3 8.9 0 10.8 5.5 1.1 3.2 3 6.2 4.7 9.3 1.9 3.5 5.7 2.8 7.9 1.8 3.1-1.3-.1-3.6-.8-5.3-1.4-3.1-3.1-6.1-4.9-9.1zm-7.6-9.2c-1.2.1-2.3 0-3.9 0-1.7-.7-5.1 1.5-5.8-1.2-.9-3.4-.3-7.2 0-10.8.1-1 1.6-.9 2.6-.9 2.3 0 4.6-.1 7 0 4.1.2 7.1 1.6 7.2 6.3 0 4-2.6 6.4-7.1 6.6z" style="fill:#638091"/>
  <path d="M205.3 257.3c-2.1-3-2.4-5 1.4-7.4 5.1-3.2 6.5-9 4.8-14.5-1.6-5.1-6-8.4-11.9-9-6.6-.3-13.3-.6-19.9.1-1.8 1.2-.9 3-.9 4.5-.1 11.3-.1 22.6 0 33.9 0 5.8 1.6 6.7 7.7 4.3l.3-15.9c5.2-1.2 9-.1 10.9 5.5 1 3.1 3 5.9 4.5 8.9 1.9 4 5.8 3.2 8.2 2.1 3.2-1.3-.2-3.6-.9-5.2-1.2-2.5-2.6-5-4.2-7.3zm-11-10.9c-2.5-.2-5-.1-7.4-.1v-12.9c2.6 0 5.3.2 7.9-.1 4.4-.4 7.7 1.2 9.6 5.3v2.4c-2 4.4-5.5 5.8-10.1 5.4z" style="fill:#617e8f"/>
  <path d="M368.1 260.7c-8.1 5.1-18.2 1-21-7.8-2-6.2 0-13.2 4.9-17.2 4.8-3.8 10.7-4.3 16.7-.4 3.7 2.4 4.9-.4 6.4-2.2 2-2.5-.9-3.3-2.3-4.4-5.2-4.2-11.5-3.8-17.4-2.9-10.1 1.5-18 12.2-17.8 22.9.2 10.9 8.3 20.2 18.8 21.8h8.3c2.9-.2 5.5-1.5 7.8-3.1 1.6-1.1 4.6-1.9 2.4-4.8-1.7-2.2-3-4.3-6.8-1.9z" style="fill:#627f90"/>
  <path d="M327.9 262.5c-3.7 0-7.3-.3-11 .1-4.5.4-6-1-5.9-5.7.1-4.3 1-6.2 5.5-5.5 1.8.3 3.7-.2 5.5.1 5.1.8 6.5-1.5 5.4-6.1-5.2-2.4-10.6-.5-15.9-1.1-.1-1.6-.1-3.3-.4-4.9-.8-4.7.9-6.3 5.8-6.1 4.4.2 9.1 1.4 13.5-.9-.1-2.4 2.4-6.1-2.7-6.2-7.1-.1-14.3 0-21.4-.1-2 0-3.1.6-3 2.8.2 13.4.2 26.9.3 40.3.4 1 1.2 1 2 1 7.3 0 14.6-.1 21.9 0 2.6 0 3.6-1 3.6-3.5.2-2.3-.1-4.2-3.2-4.2z" style="fill:#628091"/>
  <path class="st5" d="M159.6 226.4c-5-.1-10-.2-14.9-.3-2-.1-3.1.5-3.1 2.8.2 13.4.2 26.9.3 40.4 6.1 2.5 7.7 1.6 7.7-4.6 0-3.6 0-7.2.1-10.8 3.3-.2 6.6-.3 9.9-.5 7.4-1 12.6-6.5 12.7-13.5.2-6.9-5.2-12.5-12.7-13.5zm-8.3 19.9c-1.2-.3-1.6-.9-1.7-2 0-.7-.2-1.4 0-2 .9-2.9-2.2-7.1 1.7-8.8 4.9-2.1 10 .3 13.1 5v2.5c-3.1 4.9-7.9 6.8-13.1 5.3z"/>
  <path d="M29.5 226c-7.9.5-15.8.3-23.8.4h-1v7c.4 0 .8-.1 1.2-.1 3.5.1 6.9.1 10.4.2.2 11.9.4 23.9.5 35.8 2.3 1.7 4.5 1.6 6.8.1 1.3-1.4.7-3.1.7-4.7.1-8.2.3-16.5-.1-24.7-.2-4.9.8-7.5 6.3-6.6 1.3.2 3 .7 4-1 1.4-4.6.3-6.7-5-6.4z" style="fill:#648091"/>
</svg>
